name Walk6.mot
datacolumns 19
datarows 10
range 3.99200000 4.00100000
endheader

                time	   L_ground_force_vx	   L_ground_force_vy	   L_ground_force_vz	   L_ground_force_px	   L_ground_force_py	   L_ground_force_pz	   R_ground_force_vx	   R_ground_force_vy	   R_ground_force_vz	   R_ground_force_px	   R_ground_force_py	   R_ground_force_pz	   L_ground_torque_x	   L_ground_torque_y	   L_ground_torque_z	   R_ground_torque_x	   R_ground_torque_y	   R_ground_torque_z	
          3.99200000	         22.86179210	        996.61182881	         70.44687330	         -0.27853351	          0.00000000	         -0.10176209	         -0.01557802	          0.35531828	          0.02694181	          0.00013166	          0.00000000	          0.00013112	          0.00000000	          0.66121122	          0.00000000	          0.00000000	          0.00707488	          0.00000000	
          3.99300000	         23.20770157	        997.19964971	         70.59757935	         -0.27816680	          0.00000000	         -0.10177223	         -0.01739245	          0.37236224	          0.02757665	          0.00013574	          0.00000000	          0.00013495	          0.00000000	          0.67115728	          0.00000000	          0.00000000	          0.00753747	          0.00000000	
          3.99400000	         23.55862633	        997.76087564	         70.74597133	         -0.27780073	          0.00000000	         -0.10178176	         -0.01930365	          0.38945218	          0.02815659	          0.00013965	          0.00000000	          0.00013858	          0.00000000	          0.68101813	          0.00000000	          0.00000000	          0.00801191	          0.00000000	
          3.99500000	         23.91488278	        998.29655393	         70.89192895	         -0.27743547	          0.00000000	         -0.10179070	         -0.02131273	          0.40652180	          0.02867415	          0.00014333	          0.00000000	          0.00014197	          0.00000000	          0.69078684	          0.00000000	          0.00000000	          0.00849735	          0.00000000	
          3.99600000	         24.27678921	        998.80772100	         71.03533811	         -0.27707119	          0.00000000	         -0.10179905	         -0.02342049	          0.42349871	          0.02912137	          0.00014677	          0.00000000	          0.00014510	          0.00000000	          0.70045641	          0.00000000	          0.00000000	          0.00899280	          0.00000000	
          3.99700000	         24.64466364	        999.29539921	         71.17609130	         -0.27670805	          0.00000000	         -0.10180682	         -0.02562738	          0.44030420	          0.02948989	          0.00014993	          0.00000000	          0.00014791	          0.00000000	          0.71001990	          0.00000000	          0.00000000	          0.00949716	          0.00000000	
          3.99800000	         25.01882142	        999.76059404	         71.31408831	         -0.27634624	          0.00000000	         -0.10181402	         -0.02793351	          0.45685292	          0.02977086	          0.00015275	          0.00000000	          0.00015037	          0.00000000	          0.71947059	          0.00000000	          0.00000000	          0.01000916	          0.00000000	
          3.99900000	         25.39957333	       1000.20429221	         71.44923722	         -0.27598591	          0.00000000	         -0.10182067	         -0.03033857	          0.47305267	          0.02995498	          0.00015521	          0.00000000	          0.00015245	          0.00000000	          0.72880195	          0.00000000	          0.00000000	          0.01052740	          0.00000000	
          4.00000000	         25.78722446	       1000.62746106	         71.58145520	         -0.27562723	          0.00000000	         -0.10182677	         -0.03284183	          0.48880412	          0.03003251	          0.00015725	          0.00000000	          0.00015408	          0.00000000	          0.73800755	          0.00000000	          0.00000000	          0.01105032	          0.00000000	
          4.00100000	         26.18207400	       1001.03104963	         71.71066882	         -0.27527036	          0.00000000	         -0.10183234	         -0.03544207	          0.50400056	          0.02999321	          0.00015884	          0.00000000	          0.00015523	          0.00000000	          0.74708083	          0.00000000	          0.00000000	          0.01157620	          0.00000000	
